<?xml version="1.0" encoding="UTF-8" standalone="no"?>
<!-- Created with Inkscape (http://www.inkscape.org/) -->

<svg
   width="32.137215mm"
   height="8.1940832mm"
   viewBox="0 0 32.137214 8.1940833"
   version="1.1"
   id="svg1"
   inkscape:version="1.3.2 (091e20e, 2023-11-25, custom)"
   sodipodi:docname="logo-light.svg"
   xmlns:inkscape="http://www.inkscape.org/namespaces/inkscape"
   xmlns:sodipodi="http://sodipodi.sourceforge.net/DTD/sodipodi-0.dtd"
   xmlns="http://www.w3.org/2000/svg"
   xmlns:svg="http://www.w3.org/2000/svg">
  <sodipodi:namedview
     id="namedview1"
     pagecolor="#ffffff"
     bordercolor="#000000"
     borderopacity="0.25"
     inkscape:showpageshadow="2"
     inkscape:pageopacity="0.0"
     inkscape:pagecheckerboard="0"
     inkscape:deskcolor="#d1d1d1"
     inkscape:document-units="mm"
     inkscape:zoom="8.1031988"
     inkscape:cx="59.667794"
     inkscape:cy="19.683585"
     inkscape:window-width="2560"
     inkscape:window-height="1351"
     inkscape:window-x="-9"
     inkscape:window-y="-9"
     inkscape:window-maximized="1"
     inkscape:current-layer="layer1" />
  <defs
     id="defs1" />
  <g
     inkscape:label="Layer 1"
     inkscape:groupmode="layer"
     id="layer1"
     style="display:inline">
    <g
       id="text2-83-0"
       style="font-style:italic;font-size:13.9578px;line-height:1.3;font-family:Aleo;-inkscape-font-specification:'Aleo, Italic';fill:#0a111b;stroke-width:2.09367;stroke-linecap:round"
       inkscape:label="Outlined"
       transform="matrix(0.86188516,0,0,0.86188516,-0.45417981,-0.41910873)"
       aria-label="DrawRef">
      <path
         style="font-style:normal;font-family:Journal;-inkscape-font-specification:'Journal, Normal';letter-spacing:0px;fill:#fac2d6;fill-opacity:1"
         d="M 7.0208958,7.041571 Q 6.9092334,7.0834444 6.7138242,7.3067692 6.5323728,7.5161362 6.3648792,7.530094 5.8623984,7.9767436 4.6759854,8.437351 4.5922386,8.6188024 4.3689138,8.646718 4.145589,8.6606758 4.0758,8.7304648 L 3.0429228,8.9817052 Q 2.3869062,9.135241 1.9262988,9.135241 q -0.348945,0 -0.6141432,-0.083747 Q 1.2284088,8.995663 1.2702822,8.8142116 1.633185,8.8700428 2.2752438,8.6746336 2.3031594,8.576929 2.2473282,8.4094354 2.1775392,8.1861106 2.1775392,8.1442372 2.3729484,6.4972168 2.8056402,4.6547872 2.9312604,4.4175046 3.028965,3.9848128 3.1406274,3.4683742 3.2104164,3.3008806 3.1964586,3.2310916 3.37791,2.6588218 3.4756146,2.3377924 3.168543,2.3238346 2.749809,1.8632272 2.749809,1.7236492 q 0,-0.055831 0.013958,-0.1116624 0.097705,-0.1116624 0.2931138,-0.1116624 0.1256202,0 0.2931138,0.041873 0.027916,0.013958 0.069789,0.013958 h 0.013958 l 0.083747,-0.083747 q 0.1256202,-0.1256202 0.1535358,-0.139578 0.097705,-0.069789 0.2233248,-0.083747 0.279156,0.041873 0.4606074,0.5024808 -0.013958,0.041873 -0.013958,0.083747 0,0.055831 0.055831,0.069789 h 0.1256202 q 0.027916,0 0.1256202,-0.027916 0.1674936,0.1256202 0.6420588,0.1674936 1.7586828,0.348945 2.6798976,1.39578 0.4745652,0.5303964 0.4745652,1.2282864 0,0.5303964 -0.3070716,1.0049616 Q 7.9560684,6.0366094 7.0208958,7.041571 Z M 7.7885748,4.3058422 Q 7.774617,4.2081376 7.704828,4.0127284 7.355883,3.482332 6.029892,2.92402 L 5.0807616,2.7286108 Q 4.5224496,2.6169484 4.1037156,2.644864 4.006011,3.1752604 3.726855,4.1243908 3.4197834,5.1433102 3.3220788,5.6039176 3.2104164,5.8272424 3.2104164,5.9668204 q 0,0.055831 0.013958,0.097705 -0.083747,0.3210294 -0.1814514,1.1026662 -0.097705,0.69789 -0.2512404,1.0747506 0.083747,0.1954092 0.069789,0.2931138 h 0.027916 q 0.5024808,0 1.2980754,-0.3629028 0,0 1.256202,-0.5862276 Q 5.5972002,7.4323894 5.9042718,7.2369802 6.2671746,7.0136554 6.378837,6.9159508 7.7327436,5.8132846 7.8862794,4.6129138 7.8164904,4.5152092 7.7885748,4.3058422 Z M 9.9241107,5.855158 Q 10.37076,5.2689304 10.859283,4.7664496 11.347806,4.250011 11.934034,4.1941798 q 0.265198,-0.027916 0.488523,0.083747 0.153536,0.209367 0.181451,0.4466496 0,0.1256202 -0.111662,0.767679 l -0.195409,0.027916 Q 12.255063,5.436424 12.21319,4.9618588 12.185274,4.6966606 12.08757,4.6129138 11.403638,4.8222808 10.831368,5.4782974 10.56617,5.7574534 10.314929,6.0366094 10.021815,6.3715966 9.9241107,6.6786682 9.8264061,6.692626 9.7426593,7.041571 9.6728703,7.2928114 9.6170391,7.3626004 9.4914189,7.5859252 9.2401785,8.297773 q 0.013958,0.1116624 0,0.4606074 -0.055831,0.2931138 -0.279156,0.3629028 -0.055831,-0.097705 -0.1116624,-0.055831 -0.069789,0.069789 -0.1256202,0.069789 -0.1116624,0 -0.1954092,-0.1814514 0.2233248,-0.8095524 0.977046,-3.7546482 -0.055831,-0.1256202 -0.055831,-0.209367 0,-0.1535358 0.1954092,-0.1954092 0.4606071,-0.083747 0.4885231,0.1814514 0,0.027916 -0.04187,0.1674936 -0.04187,0.1256202 -0.02792,0.3349872 -0.083747,0.013958 -0.097705,0.041873 0,0.027916 0.013958,0.139578 L 9.9380685,5.785369 q 0,0.041873 -0.013958,0.069789 z m 5.0666643,2.8892646 q -0.153536,0.069789 -0.502481,0.2651982 -0.181452,0.013958 -0.586228,-0.2233248 -0.01396,-0.1116624 -0.111662,-0.3768606 -0.09771,-0.2651982 -0.09771,-0.418734 -0.111662,0.1256202 -0.153536,0.2233248 -0.516438,0.6420588 -0.600185,0.7258056 -0.404776,0.348945 -0.865384,0.279156 -0.37686,-0.2931138 -0.37686,-0.8653836 0,-0.9910038 0.195409,-1.5074424 0.488523,-1.3399488 1.940134,-2.3588682 h 0.223325 q 0.321029,0 0.321029,0.3768606 0,0.1256202 -0.08375,0.5024808 -0.06979,0.1814514 -0.307072,0.4745652 -0.04187,0.097705 -0.334987,0.1954092 0.06979,-0.3629028 0.223325,-0.558312 0.01396,-0.041873 0.06979,-0.2233248 0.01396,-0.027916 0.01396,-0.083747 0,-0.041873 -0.01396,-0.097705 0.06979,-0.055831 0.06979,-0.097705 -0.08375,-0.013958 -0.293114,0.2372826 -0.04187,0.027916 -0.139578,0.1256202 -1.437654,1.6470204 -1.465569,2.9869692 0.05583,0.4047762 0.25124,0.4466496 0.474565,-0.1256202 0.82351,-0.7258056 0.390819,-0.348945 0.69789,-1.256202 0.153536,-0.348945 0.57227,-1.7726406 0.05583,-0.1256202 0.307072,-0.209367 0.12562,0.139578 0.12562,0.3070716 0,0.097705 -0.05583,0.2651982 -0.05583,0.209367 -0.06979,0.279156 -0.558312,1.535358 -0.558312,2.0378388 0,0.6560166 0.265198,0.8932992 0.05583,-0.013958 0.348945,-0.1814514 0.25124,-0.139578 0.307072,-0.139578 0.01396,0.069789 0.01396,0.139578 0,0.2651982 -0.153535,0.3349872 z M 22.5559,4.3058422 q -0.09771,0.1674936 -0.223325,0.4047762 -0.321029,0.3768606 -1.200371,1.8563874 -0.69789,1.1724552 -1.409737,1.6470204 -0.167494,0.055831 -0.32103,0.055831 -0.25124,0 -0.502481,-0.1256202 Q 18.745421,7.9209124 18.466265,7.530094 18.452307,7.3626004 18.312729,6.8042884 18.201066,6.3576388 18.215024,6.064525 18.033573,6.3855544 17.600881,6.9996976 17.531092,7.2230224 17.293809,7.5859252 17.056527,7.948828 16.986738,8.1163216 16.763413,8.4233932 16.219059,8.9817052 h -0.404776 q -0.32103,0 -0.32103,-0.3210294 -0.01396,-0.8653836 0.153536,-2.1355434 0.111662,-0.9212148 0.25124,-2.0378388 0.01396,-0.1535358 0.209367,-0.1535358 0.223325,0 0.307072,0.1116624 0.153536,0.209367 0.153536,0.4606074 0,0.1535358 -0.08375,0.4745652 -0.06979,0.3210294 -0.06979,0.4745652 0.01396,0.1535358 -0.111662,0.4745652 -0.08375,0.209367 0.0977,0.418734 -0.167493,0.027916 -0.167493,0.055831 v 0.041873 q 0,0.139578 -0.04187,0.3629028 -0.05583,0.3070716 -0.06979,0.3768606 -0.04187,0.3768606 0,0.6001854 0.223325,-0.139578 0.460608,-0.5303964 0.265198,-0.4466496 0.404776,-0.5722698 0.334987,-0.69789 1.423695,-2.4007416 0.153536,-0.1116624 0.348945,-0.1116624 0.06979,0 0.153536,0.013958 0.209367,0.097705 0.209367,0.279156 0,0.055831 -0.04187,0.2233248 -0.02792,0.1535358 -0.01396,0.2372826 -0.06979,0.1116624 -0.09771,0.3768606 -0.01396,0.2651982 -0.06979,0.3629028 0.04187,0.8653836 0.05583,0.9351726 0.0977,0.5443542 0.460607,0.767679 0.12562,0.013958 0.279156,-0.279156 0.293114,-0.348945 1.353907,-1.8982608 0.795594,-1.1584974 1.451611,-1.814514 h 0.265198 q -0.05583,0.279156 -0.209367,0.5303964 z"
         id="path8" />
      <path
         style="font-style:normal;font-weight:600;font-size:9.88676px;font-family:'Open Sans';-inkscape-font-specification:'Open Sans, Semi-Bold';fill:#fafafa;fill-opacity:1"
         d="m 23.958692,1.8122094 q 0.912401,0 1.506186,0.2220659 0.598612,0.2220659 0.888264,0.6758527 0.294478,0.4537869 0.294478,1.1537772 0,0.5213721 -0.1931,0.8882635 -0.193101,0.3668915 -0.50689,0.6082675 -0.313789,0.241376 -0.671025,0.3862015 l 2.00342,3.1234051 H 25.971768 L 24.267653,6.0411164 H 23.133186 V 8.8700428 H 21.974582 V 1.8122094 Z m -0.07724,0.9655039 h -0.748266 v 2.3075543 h 0.801368 q 0.806196,0 1.16826,-0.2993062 0.366892,-0.2993062 0.366892,-0.8834361 0,-0.6130949 -0.39103,-0.8689535 -0.386201,-0.2558585 -1.197224,-0.2558585 z m 6.420601,0.6468876 q 0.714473,0 1.22619,0.2944787 0.511717,0.2944787 0.786886,0.8351608 0.275168,0.5406822 0.275168,1.2937752 V 6.4562831 H 29.02276 q 0.01931,0.7772306 0.415167,1.1972248 0.400684,0.4199942 1.119985,0.4199942 0.511717,0 0.917228,-0.09655 0.410339,-0.1013779 0.844816,-0.2944787 v 0.9220562 q -0.400684,0.1882733 -0.815851,0.2751686 -0.415166,0.086895 -0.994469,0.086895 -0.786885,0 -1.385498,-0.3041337 -0.593785,-0.3089613 -0.931711,-0.9172287 -0.333099,-0.6082675 -0.333099,-1.5110136 0,-0.8979186 0.304134,-1.5254961 0.304134,-0.6275776 0.854471,-0.9558489 0.550337,-0.3282713 1.28412,-0.3282713 z m 0,0.8544709 q -0.535855,0 -0.868953,0.3475814 -0.328272,0.3475814 -0.386202,1.0186066 h 2.43307 Q 31.47514,5.2445757 31.344797,4.9356145 31.219282,4.6266532 30.958596,4.4528625 30.702737,4.2790718 30.302053,4.2790718 Z m 6.237154,0.111033 h -1.298602 v 4.479938 H 34.106138 V 4.3901048 H 33.232357 V 3.8445951 l 0.873781,-0.3330988 v -0.371719 q 0,-0.6806803 0.21241,-1.0813644 0.217239,-0.4006841 0.617923,-0.5744748 0.405512,-0.1786182 0.965504,-0.1786182 0.366891,0 0.671025,0.062758 0.304134,0.05793 0.511717,0.1351706 l -0.294479,0.8592984 q -0.164135,-0.053103 -0.366891,-0.09655 -0.202756,-0.048275 -0.434477,-0.048275 -0.386201,0 -0.569647,0.241376 -0.178618,0.241376 -0.178618,0.7048179 v 0.3620639 h 1.298602 z"
         id="path9" />
    </g>
    <text
       xml:space="preserve"
       style="font-style:italic;font-size:13.9578px;line-height:1.3;font-family:Aleo;-inkscape-font-specification:'Aleo, Italic';display:none;fill:#0a111b;fill-opacity:1;stroke-width:2.09367;stroke-linecap:round"
       x="1.772763"
       y="8.8700428"
       id="text8"
       transform="matrix(0.86188516,0,0,0.86188516,-0.45417981,-0.41910873)"
       inkscape:label="Text"><tspan
         sodipodi:role="line"
         id="tspan8"
         style="font-style:normal;font-variant:normal;font-weight:normal;font-stretch:normal;font-size:13.9578px;font-family:Journal;-inkscape-font-specification:'Journal, Normal';font-variant-ligatures:normal;font-variant-caps:normal;font-variant-numeric:normal;font-variant-east-asian:normal;fill:#0a111b;fill-opacity:1;stroke-width:2.09367"
         x="1.772763"
         y="8.8700428"><tspan
           style="letter-spacing:0px;fill:#fac2d6;fill-opacity:1;stroke-width:2.09367"
           id="tspan6"
           dx="0">Draw</tspan><tspan
           style="font-style:normal;font-variant:normal;font-weight:600;font-stretch:normal;font-size:9.88676px;font-family:'Open Sans';-inkscape-font-specification:'Open Sans, Semi-Bold';font-variant-ligatures:normal;font-variant-caps:normal;font-variant-numeric:normal;font-variant-east-asian:normal;fill:#fafafa;fill-opacity:1;stroke-width:2.09367"
           id="tspan7"
           dx="-0.82427824">Ref</tspan></tspan></text>
  </g>
</svg>
